<svg xmlns="http://www.w3.org/2000/svg" viewBox="0 0 436.15 436.15"><defs><style>.cls-1{fill:#ffeeb3;}.cls-2{fill:#ffbf8a;}.cls-3,.cls-4,.cls-5{fill:none;stroke:#442204;}.cls-3,.cls-5{stroke-linecap:round;stroke-linejoin:round;}.cls-3,.cls-4{stroke-width:1.95px;}.cls-4{stroke-miterlimit:10;}.cls-5{stroke-width:1.15px;}.cls-6{font-size:124.68px;font-family:Cookie-Regular, Cookie;}.cls-6,.cls-8{fill:#442204;}.cls-7{opacity:0.7;}.cls-8{font-size:31.78px;font-family:Barlow-Medium, Barlow;font-weight:500;}.cls-9{letter-spacing:-0.01em;}</style></defs><g id="Layer_2" data-name="Layer 2"><g id="Objects"><rect class="cls-1" width="436.15" height="436.15"/><path class="cls-2" d="M342,168.63S316.23,67,192.68,90.84c0,0,97.83-13.62,133.33,80.13Z"/><path class="cls-2" d="M65.92,218.24l47.84,6.1L66.18,238.13l163-6.32s12.56,2,21.81,10.88,15.72,6.82,25.76,5.71,61.55-3.87,61.55-3.87,3.29-3.28,0-4.44-22.88.92-27.26-2.7,29.36-4.12,28.73-8.5-44.2-2.57-46-4.55,44.74-7.06,44.54-11.44c0,0-65-6.48-71.95-5.17S243.2,221.18,232.88,224,65.92,218.24,65.92,218.24Z"/><path class="cls-2" d="M388,169.2l-49.7,6.57,55.52,11-147.23-4.54s-9,1.3-18.83,11.1S195.29,213,175.25,207.72,132,196.88,133.12,175.5s30.92-28.83,54.12-29.17,52.21,27.12,52.21,27.12Z"/><path class="cls-2" d="M202.07,42.52c-85.94,0-148.76,98.23-138.48,173.53l20.22,0C83.81,107.18,149.7,57.11,202.07,42.52Z"/><path class="cls-3" d="M390.46,166.73c-7.33.17-140,5.64-140,5.64s-10.19.3-15.38-5.71c-5.71-6.62-24.92-20.14-49.6-20.14-24.23,0-52.41,9.9-52.41,30.63s28.18,30.63,52.41,30.63c24.68,0,43.89-13.52,49.6-20.14,5.19-6,15.38-5.72,15.38-5.72s136,4.66,143.34,4.83c0,0,3.15,31.32-1.37,53.34"/><path class="cls-4" d="M390.46,166.73A167,167,0,0,0,60.91,204.59q0,6.81.53,13.48"/><path class="cls-3" d="M63.59,238.23s161.42-6.16,165.55-6.42,9.48,1.7,14.55,5.62,14.05,10.81,22.05,11a5.37,5.37,0,0,0,.57,0l76.38-4.1"/><path class="cls-3" d="M342.69,211.83l-76.38-4.1h-.57c-8,.16-17.05,7.09-22.05,11s-10.42,5.89-14.55,5.62-167.7-6.24-167.7-6.24"/><line class="cls-3" x1="264.2" y1="222.35" x2="342" y2="222.35"/><line class="cls-3" x1="264.2" y1="233.77" x2="342" y2="233.77"/><path class="cls-3" d="M332.71,146.33a120,120,0,0,1,5.55,11.4"/><path class="cls-3" d="M110.14,201A118.75,118.75,0,0,1,326,135.67"/><path class="cls-3" d="M228.9,175.5s-26-32.09-66.24-17.14"/><line class="cls-5" x1="387.07" y1="106.22" x2="387.07" y2="119.31"/><line class="cls-5" x1="393.78" y1="112.77" x2="380.88" y2="112.77"/><line class="cls-5" x1="106.67" y1="52.87" x2="106.67" y2="65.97"/><line class="cls-5" x1="113.37" y1="59.42" x2="100.48" y2="59.42"/><text class="cls-6" transform="translate(92.17 347.04)">SiZZle</text><g class="cls-7"><text class="cls-8" transform="translate(147.68 390.3)">Fi<tspan class="cls-9" x="26.06" y="0">n</tspan><tspan x="43.09" y="0">e-Dining</tspan></text></g></g></g></svg>