<svg xmlns="http://www.w3.org/2000/svg" viewBox="0 0 335.89 360.26"><defs><style>.cls-1{fill:#ffbf8a;}.cls-2,.cls-3,.cls-4{fill:none;stroke:#442204;}.cls-2,.cls-4{stroke-linecap:round;stroke-linejoin:round;}.cls-2,.cls-3{stroke-width:1.95px;}.cls-3{stroke-miterlimit:10;}.cls-4{stroke-width:1.15px;}.cls-5{font-size:124.68px;font-family:Cookie-Regular, Cookie;}.cls-5,.cls-7{fill:#442204;}.cls-6{opacity:0.7;}.cls-7{font-size:31.78px;font-family:Barlow-Medium, Barlow;font-weight:500;}.cls-8{letter-spacing:-0.01em;}</style></defs><g id="Layer_2" data-name="Layer 2"><g id="Objects"><path class="cls-1" d="M282.07,132S256.3,30.33,132.75,54.16c0,0,97.83-13.62,133.33,80.13Z"/><path class="cls-1" d="M6,181.56l47.85,6.1L6.25,201.45l163-6.32s12.56,2,21.81,10.88,15.72,6.82,25.76,5.71,61.55-3.87,61.55-3.87,3.29-3.28,0-4.44-22.88.92-27.27-2.69,29.37-4.13,28.74-8.51-44.2-2.56-46-4.55,44.74-7.06,44.54-11.44c0,0-65-6.48-71.95-5.17S183.26,184.5,173,187.32,6,181.56,6,181.56Z"/><path class="cls-1" d="M328,132.52l-49.7,6.57,55.52,11-147.23-4.54s-9,1.3-18.83,11.1S135.36,176.3,115.32,171,72.05,160.2,73.19,138.82,104.1,110,127.31,109.65s52.21,27.12,52.21,27.12Z"/><path class="cls-1" d="M142.14,5.84C56.2,5.84-6.62,104.07,3.65,179.37l20.22,0C23.87,70.5,89.77,20.43,142.14,5.84Z"/><path class="cls-2" d="M330.53,130.05c-7.33.17-140,5.64-140,5.64s-10.19.3-15.37-5.71c-5.71-6.62-24.92-20.14-49.61-20.14-24.22,0-52.4,9.9-52.4,30.63s28.18,30.63,52.4,30.63c24.69,0,43.9-13.52,49.61-20.14,5.18-6,15.37-5.72,15.37-5.72s136,4.66,143.35,4.83c0,0,3.15,31.32-1.37,53.34"/><path class="cls-3" d="M330.53,130.05A167,167,0,0,0,1,167.91q0,6.81.53,13.48"/><path class="cls-2" d="M3.65,201.55s161.43-6.15,165.56-6.42,9.48,1.7,14.55,5.62,14.05,10.81,22.05,11a5.42,5.42,0,0,0,.57,0l76.38-4.1"/><path class="cls-2" d="M282.76,175.15l-76.38-4.1h-.57c-8,.16-17.05,7.09-22.05,11s-10.42,5.89-14.55,5.62-167.7-6.24-167.7-6.24"/><line class="cls-2" x1="204.27" y1="185.67" x2="282.07" y2="185.67"/><line class="cls-2" x1="204.27" y1="197.09" x2="282.07" y2="197.09"/><path class="cls-2" d="M272.77,109.65a117.69,117.69,0,0,1,5.56,11.4"/><path class="cls-2" d="M50.2,164.32A118.76,118.76,0,0,1,266.08,99"/><path class="cls-2" d="M169,138.82s-26-32.09-66.24-17.14"/><line class="cls-4" x1="327.14" y1="69.54" x2="327.14" y2="82.64"/><line class="cls-4" x1="333.85" y1="76.09" x2="320.95" y2="76.09"/><line class="cls-4" x1="46.74" y1="16.19" x2="46.74" y2="29.29"/><line class="cls-4" x1="53.44" y1="22.74" x2="40.55" y2="22.74"/><text class="cls-5" transform="translate(32.24 310.36)">SiZZle</text><g class="cls-6"><text class="cls-7" transform="translate(87.75 353.62)">Fi<tspan class="cls-8" x="26.06" y="0">n</tspan><tspan x="43.09" y="0">e-Dining</tspan></text></g></g></g></svg>